<?xml version="1.0" encoding="UTF-8" standalone="no"?>
<!-- Generator: Adobe Illustrator 16.0.0, SVG Export Plug-In . SVG Version: 6.00 Build 0)  -->

<svg
   version="1.1"
   id="svg2"
   x="0px"
   y="0px"
   width="248.899"
   height="254.75507"
   viewBox="35.188 31.512 248.89901 254.75506"
   enable-background="new 35.188 31.512 351.46 258.785"
   xml:space="preserve"
   sodipodi:docname="ati.svg"
   inkscape:version="1.1.1 (3bf5ae0d25, 2021-09-20)"
   xmlns:inkscape="http://www.inkscape.org/namespaces/inkscape"
   xmlns:sodipodi="http://sodipodi.sourceforge.net/DTD/sodipodi-0.dtd"
   xmlns="http://www.w3.org/2000/svg"
   xmlns:svg="http://www.w3.org/2000/svg"
   xmlns:rdf="http://www.w3.org/1999/02/22-rdf-syntax-ns#"
   xmlns:cc="http://creativecommons.org/ns#"
   xmlns:dc="http://purl.org/dc/elements/1.1/"><defs
   id="defs91" /><sodipodi:namedview
   id="namedview89"
   pagecolor="#ffffff"
   bordercolor="#666666"
   borderopacity="1.0"
   inkscape:pageshadow="2"
   inkscape:pageopacity="0.0"
   inkscape:pagecheckerboard="0"
   showgrid="false"
   inkscape:zoom="14.127557"
   inkscape:cx="199.89301"
   inkscape:cy="209.97968"
   inkscape:window-width="3840"
   inkscape:window-height="2066"
   inkscape:window-x="3829"
   inkscape:window-y="-11"
   inkscape:window-maximized="1"
   inkscape:current-layer="svg2" />
    <metadata
            id="metadata1127">
    <rdf:RDF>
      <cc:Work
              rdf:about="">
        <dc:format>image/svg+xml</dc:format>
          <dc:type
                  rdf:resource="http://purl.org/dc/dcmitype/StillImage" />
          <dc:title></dc:title>
      </cc:Work>
    </rdf:RDF>
  </metadata>

<path
   d="m 224.4641,215.98989 v 60.27292 c 0,0 -0.80476,9.861 10.66624,9.861 10.46476,0 9.55914,-9.4585 9.55914,-9.4585 l 0.10062,-61.38003 c 0,0 0.1011,-9.25726 -10.16288,-9.25726 -10.36413,2.4e-4 -10.16312,9.96187 -10.16312,9.96187 z"
   style="fill:none;fill-opacity:1;stroke-width:0.236764"
   id="path13" /><path
   style="fill:#000000;stroke-width:0.0752947"
   d="m 83.283825,286.11309 c -2.0972,-0.40026 -3.86538,-1.4122 -5.68368,-3.25283 -1.98983,-2.01426 -2.94792,-3.99012 -3.04387,-6.27737 -0.0891,-2.12418 0.64501,-4.34614 2.13939,-6.47533 0.61206,-0.87206 1.98286,-2.25537 33.600935,-33.90766 28.48673,-28.51755 27.48317,-27.52311 28.38234,-28.12441 3.12812,-2.09181 6.58479,-2.55422 10.13113,-1.35526 2.88227,0.97445 4.76311,3.32342 5.5011,6.87028 0.18221,0.87572 0.19259,1.07227 0.26071,4.94026 0.039,2.21555 0.08,16.44622 0.091,31.62373 0.0191,26.27574 0.0136,27.63439 -0.11542,28.40946 -0.67771,4.0702 -2.80042,6.35395 -6.68717,7.19446 -2.31793,0.50125 -5.28415,0.39165 -7.21973,-0.26678 -3.40961,-1.15986 -5.54843,-4.16306 -5.94527,-8.34802 -0.0513,-0.54024 -0.0782,-6.42141 -0.0782,-17.06754 -6e-5,-14.81375 -0.0109,-16.27018 -0.12234,-16.54887 -0.19803,-0.49492 -0.60908,-0.63289 -1.23139,-0.41333 -0.63603,0.2244 -1.40465,0.83604 -2.93813,2.33802 -8.57527,8.3992 -33.477285,32.73525 -37.007285,36.1662 -0.99389,0.96601 -2.15712,2.02023 -2.58495,2.34274 -1.31775,0.99331 -2.61391,1.63284 -4.07221,2.00925 -0.90909,0.23463 -2.53586,0.30353 -3.37698,0.143 z"
   id="path666" /><path
   style="fill:#000000;stroke-width:0.0752947"
   d="m 187.82143,285.91759 c -1.91877,-0.22019 -3.42839,-0.72288 -4.71468,-1.56991 -0.65215,-0.42946 -1.55307,-1.33687 -2.01181,-2.02631 -0.43553,-0.65456 -0.89296,-1.63223 -1.09962,-2.35022 -0.36985,-1.28498 -0.35208,0.0536 -0.35269,-26.57003 -4.7e-4,-16.70122 -0.026,-24.97519 -0.0783,-25.29754 -0.10243,-0.63131 -0.36243,-1.12682 -0.78763,-1.5011 -0.68071,-0.59917 -0.35379,-0.56907 -6.73825,-0.62046 -4.94738,-0.0398 -5.7529,-0.0621 -6.21022,-0.17168 -1.53252,-0.36727 -2.6573,-0.96083 -3.61188,-1.90607 -1.21533,-1.20342 -1.98306,-2.84801 -2.38546,-5.10996 -0.15066,-0.84688 -0.17442,-1.23258 -0.17626,-2.8612 -0.003,-2.10131 0.10784,-2.91545 0.57356,-4.23629 1.04793,-2.97202 3.28176,-4.79368 6.73123,-5.48925 0.63869,-0.12878 1.77178,-0.1372 21.4556,-0.15933 14.49275,-0.0163 21.04332,0.001 21.64719,0.0581 2.72674,0.25656 5.12877,1.25934 6.76803,2.82548 0.71642,0.68447 1.10299,1.17276 1.55151,1.95981 1.54256,2.70685 1.62287,7.03302 0.1841,9.91635 -1.25376,2.51254 -3.54632,4.15676 -6.80952,4.88378 -0.71776,0.15991 -0.96755,0.16997 -5.34591,0.21549 -3.99709,0.0415 -4.64181,0.064 -4.96944,0.17302 -0.84333,0.28064 -1.43641,0.84358 -1.65137,1.56744 -0.0902,0.3036 -0.11391,4.0004 -0.15601,24.289 -0.0273,13.16198 -0.0789,24.65936 -0.11468,25.54972 -0.0493,1.2272 -0.10188,1.75613 -0.21739,2.18634 -0.8936,3.32841 -3.40463,5.44364 -7.23473,6.09434 -1.07392,0.18245 -3.28408,0.26079 -4.24537,0.15048 z"
   id="path705" /><path
   style="fill:#000000;stroke-width:0.0752947"
   d="m 232.98941,285.95236 c -1.01359,-0.13749 -1.75489,-0.3073 -2.52237,-0.5778 -3.18578,-1.12281 -5.16578,-3.46984 -5.81466,-6.89253 -0.0768,-0.40511 -0.096,-6.8284 -0.096,-32.16756 v -31.66136 l 0.168,-0.75782 c 0.8269,-3.7301 2.85462,-6.18107 5.96851,-7.21435 1.55538,-0.51612 3.2004,-0.70519 4.96817,-0.57101 4.40469,0.33433 7.28661,2.42338 8.54783,6.19613 0.56458,1.68885 0.51852,-1.12816 0.49274,30.13075 -0.0127,15.40526 -0.0476,29.92394 -0.0777,32.26372 -0.0543,4.23018 -0.0557,4.25817 -0.24528,4.96944 -0.43599,1.63531 -1.03918,2.77284 -2.00859,3.78789 -1.35022,1.41379 -3.01487,2.1927 -5.35079,2.50372 -0.98463,0.13111 -3.02991,0.12643 -4.02991,-0.009 z m 3.03378,-63.32446 c 3.14336,-0.64651 5.36156,-3.36956 5.36156,-6.58185 0,-2.99438 -1.85912,-5.51868 -4.74356,-6.44075 -0.85768,-0.27418 -2.36548,-0.34329 -3.31971,-0.15216 -1.30781,0.26196 -2.38069,0.84877 -3.38139,1.84948 -1.0007,1.0007 -1.58751,2.07357 -1.84947,3.38139 -0.19113,0.95423 -0.12202,2.46202 0.15216,3.3197 0.76162,2.38252 2.6424,4.10299 5.04897,4.61861 0.70676,0.15142 2.00942,0.15409 2.73144,0.006 z"
   id="path783" /><path
   style="fill:#000000;stroke-width:0.0752947"
   d="m 123.07135,272.81959 c -2.816,-0.51142 -5.02221,-2.59813 -5.65359,-5.34734 -0.52877,-2.30241 0.18318,-4.74683 1.87545,-6.43908 1.30425,-1.30425 3.03076,-2.01482 4.89554,-2.01482 1.15295,0 1.9825,0.19163 3.02346,0.69845 2.12336,1.03381 3.53107,2.97563 3.87114,5.33991 0.30346,2.10963 -0.49532,4.36244 -2.08618,5.88371 -0.87703,0.83866 -1.75365,1.3448 -2.932,1.69288 -0.53634,0.15844 -0.86898,0.20387 -1.65054,0.22545 -0.53836,0.0149 -1.14283,-0.003 -1.34328,-0.0392 z"
   id="path822" /><path
   style="fill:#fe0000;fill-opacity:1;stroke-width:0.283135"
   d="m 128.2645,186.51412 v -9.49907 l 1.76959,0.22635 c 3.03165,0.38778 15.83634,0.20047 20.88118,-0.30544 33.1319,-3.32262 73.80361,-15.78686 99.40424,-30.46341 6.33461,-3.63156 14.96607,-9.62444 14.97723,-10.3988 0.0109,-0.75516 -5.01286,-3.91795 -15.42594,-9.71167 -7.24826,-4.03285 -11.59044,-6.58802 -12.37364,-7.28131 -0.43945,-0.389 -0.73935,-0.20479 -3.39761,2.08699 -31.1781,26.87959 -56.10021,39.53228 -84.17525,42.73488 -4.63853,0.52913 -16.44517,0.71216 -19.74864,0.30616 l -1.91116,-0.23489 v -6.71674 -6.71675 l 2.47743,0.39715 c 3.75086,0.60128 13.29596,0.57192 17.34199,-0.0533 20.86505,-3.2244 43.66369,-16.44984 65.94154,-38.25253 5.47437,-5.35761 11.92047,-12.25417 11.92047,-12.753484 0,-0.988828 -10.46091,-11.787909 -16.13867,-16.660375 C 186.32114,63.062804 159.98741,52.765708 133.4571,53.36316 l -5.1926,0.116935 V 42.496048 31.512 h 77.86201 77.86201 v 82.2506 82.25059 H 206.12651 128.2645 Z"
   id="path7024" /><path
   style="fill:#fe0000;fill-opacity:1;stroke-width:0.283135"
   d="m 137.04168,140.33745 c -2.02343,-0.18743 -5.96544,-0.93559 -7.43229,-1.41059 l -1.34489,-0.4355 v -22.3775 -22.377501 l 1.5569,0.194522 c 2.82316,0.352731 6.67709,1.554944 9.30459,2.902514 2.14416,1.099681 3.07439,1.814593 5.43013,4.173245 3.02704,3.03079 5.17059,6.05003 9.50241,13.3844 1.30782,2.21433 2.48159,3.99535 2.60837,3.95783 0.52776,-0.15621 21.11951,-17.63822 21.13225,-17.94089 0.0224,-0.531984 -4.11355,-4.770007 -7.0342,-7.207832 -7.82792,-6.533836 -16.92106,-10.845665 -26.22021,-12.433223 -3.8448,-0.656386 -11.57462,-0.880115 -14.79378,-0.428186 l -1.48646,0.20868 v -7.419725 -7.419725 l 7.00758,0.135351 c 5.55744,0.107342 7.73998,0.266233 10.54677,0.767815 19.5388,3.491645 38.45455,15.334039 53.44155,33.457615 0.33499,0.4051 0.094,0.8253 -1.92981,3.36572 -13.73081,17.23531 -30.42679,30.27436 -44.57495,34.81167 -5.08402,1.63044 -11.48819,2.48275 -15.71396,2.09131 z"
   id="path7100" /><path
   style="fill:#fe0000;fill-opacity:1;stroke-width:0.283135"
   d="m 124.32758,149.40855 c -14.90498,-3.87934 -26.501519,-12.498 -35.771397,-26.58565 -3.257794,-4.95094 -8.707692,-16.4423 -8.707692,-18.36056 0,-0.61056 4.405521,-4.658848 8.043821,-7.391568 7.891033,-5.926939 15.780398,-10.022186 25.070008,-13.013448 3.6343,-1.17025 10.43176,-2.714489 13.67416,-3.106483 l 1.34489,-0.162592 v 6.185319 6.185319 l -3.4684,0.144312 c -6.43957,0.267936 -11.68541,2.228249 -17.86796,6.677063 -3.03439,2.183478 -6.977099,5.912298 -6.977099,6.598608 0,1.34786 3.178289,8.46748 5.671599,12.70485 3.62257,6.15654 8.66198,11.61835 14.07114,15.25058 1.74897,1.17443 6.01968,3.36695 7.6978,3.95195 l 0.87292,0.3043 v 5.67742 c 0,6.56758 0.41925,6.00068 -3.65379,4.94058 z"
   id="path7139" /><path
   style="fill:#fe0000;fill-opacity:1;stroke-width:0.283135"
   d="m 126.14099,176.57124 c -23.24733,-2.84505 -42.881056,-12.56933 -60.195712,-29.814 -8.218434,-8.18521 -14.099104,-15.74706 -20.484745,-26.34098 -2.770434,-4.59621 -7.410448,-13.74629 -9.045407,-17.83748 L 35.340212,99.889 36.854744,98.526619 C 40.667112,95.097239 47.237019,89.731882 51.653638,86.441 76.744557,67.745418 102.56353,56.515269 126.21178,54.011395 l 1.76959,-0.187364 v 5.917427 5.917428 l -3.4684,0.3442 c -19.65975,1.951016 -39.833886,11.501457 -54.832895,25.957906 -3.640547,3.508855 -8.741698,9.320368 -8.972701,10.222208 -0.298945,1.16707 3.486838,10.12726 7.025375,16.62765 9.683743,17.7893 23.000848,31.34504 38.008061,38.68914 6.29605,3.08111 12.13076,5.01574 18.41824,6.10699 1.40152,0.24325 2.83489,0.50159 3.18527,0.5741 l 0.63705,0.13182 v 6.22357 c 0,6.88558 0.18391,6.28251 -1.84038,6.03477 z"
   id="path7178" /><path
   style="fill:none;fill-opacity:1;stroke-width:0.0707836"
   d="m 198.35919,191.11907 c -2.71967,-0.499 -4.89772,-2.62428 -5.40463,-5.27367 -0.13775,-0.71993 -0.13395,-2.02501 0.008,-2.7134 0.31987,-1.55236 1.29614,-3.02844 2.67435,-4.04352 0.48578,-0.35779 1.51279,-0.85067 2.16808,-1.0405 0.70998,-0.20568 2.65382,-0.18803 3.43301,0.0312 2.1376,0.60133 3.87302,2.2372 4.55628,4.29491 0.55308,1.66566 0.45616,3.4507 -0.26982,4.96942 -0.88349,1.8482 -2.30816,3.04999 -4.32125,3.64521 -0.52175,0.15427 -2.27552,0.23467 -2.84392,0.13038 z"
   id="path12187"
   transform="translate(35.188,31.512)" /><path
   style="fill:none;fill-opacity:1;stroke-width:0.0707836"
   d="m 198.35919,191.11907 c -2.71967,-0.499 -4.89772,-2.62428 -5.40463,-5.27367 -0.13775,-0.71993 -0.13395,-2.02501 0.008,-2.7134 0.31987,-1.55236 1.29614,-3.02844 2.67435,-4.04352 0.48578,-0.35779 1.51279,-0.85067 2.16808,-1.0405 0.70998,-0.20568 2.65382,-0.18803 3.43301,0.0312 2.1376,0.60133 3.87302,2.2372 4.55628,4.29491 0.55308,1.66566 0.45616,3.4507 -0.26982,4.96942 -0.88349,1.8482 -2.30816,3.04999 -4.32125,3.64521 -0.52175,0.15427 -2.27552,0.23467 -2.84392,0.13038 z"
   id="path12226"
   transform="translate(35.188,31.512)" /></svg>
