<?xml version="1.0" encoding="UTF-8" standalone="no"?>
<svg
   height="33.87mm"
   viewBox="0,0,146.203,33.8668"
   width="146.2mm"
   version="1.1"
   id="svg892"
   sodipodi:docname="linux mint.svg"
   inkscape:version="1.1.1 (3bf5ae0d25, 2021-09-20)"
   xmlns:inkscape="http://www.inkscape.org/namespaces/inkscape"
   xmlns:sodipodi="http://sodipodi.sourceforge.net/DTD/sodipodi-0.dtd"
   xmlns="http://www.w3.org/2000/svg"
   xmlns:svg="http://www.w3.org/2000/svg">
  <defs
     id="defs896" />
  <sodipodi:namedview
     id="namedview894"
     pagecolor="#ffffff"
     bordercolor="#111111"
     borderopacity="1"
     inkscape:pageshadow="0"
     inkscape:pageopacity="0"
     inkscape:pagecheckerboard="1"
     inkscape:document-units="mm"
     showgrid="false"
     inkscape:zoom="2.6892671"
     inkscape:cx="55.033581"
     inkscape:cy="-86.268857"
     inkscape:window-width="3840"
     inkscape:window-height="2066"
     inkscape:window-x="3829"
     inkscape:window-y="-11"
     inkscape:window-maximized="1"
     inkscape:current-layer="svg892"
     inkscape:snap-text-baseline="false" />
  <clipPath
     id="a">
    <path
       d="m0 96h414.434v-96h-414.434z"
       id="path861" />
  </clipPath>
  <metadata
     id="metadata864" />
  <g
     transform="translate(-23.09 -37.31)"
     id="g890">
    <path
       d="m47.0482 71.173h9.912v-33.8667h-9.912z"
       fill="#35bf5c"
       id="path866" />
    <path
       d="m35.0707 71.173h9.912v-21.8895h-9.912z"
       fill="#35bf5c"
       id="path868" />
    <path
       d="m0 0v-96h28.002v67.903h34.046v28.097z"
       fill="#35bf5c"
       transform="matrix(.35278 0 0 -.35278 23.09 37.31)"
       id="path870" />
  </g>
  <g
     aria-label="LinuxMint"
     id="text2809"
     style="font-size:21.0661px;line-height:1.25;stroke-width:0.246869">
    <path
       d="m 40.526383,19.921492 q -0.463454,0 -0.779446,-0.315992 -0.294925,-0.315991 -0.294925,-0.779446 V 4.5643053 q 0,-0.4634542 0.315991,-0.7794456 0.315992,-0.3159915 0.75838,-0.3159915 0.463454,0 0.779445,0.3159915 0.315992,0.3159914 0.315992,0.7794456 V 17.730617 h 7.625928 q 0.463454,0 0.779445,0.315992 0.315992,0.315991 0.315992,0.779445 0,0.463455 -0.315992,0.779446 -0.315991,0.315992 -0.779445,0.315992 z"
       style="fill:#ffffff"
       id="path11239" />
    <path
       d="m 54.050782,19.921492 q -0.463454,0 -0.779445,-0.294926 -0.294926,-0.315991 -0.294926,-0.779445 V 9.4727064 q 0,-0.4845202 0.294926,-0.7794456 0.315991,-0.2949254 0.779445,-0.2949254 0.484521,0 0.779446,0.2949254 0.294926,0.2949254 0.294926,0.7794456 v 9.3744146 q 0,0.463454 -0.294926,0.779445 -0.294925,0.294926 -0.779446,0.294926 z m 0,-13.3980394 q -0.568784,0 -0.990106,-0.4002559 Q 52.66042,5.7018747 52.66042,5.13309 q 0,-0.5687847 0.400256,-0.9690406 0.421322,-0.4213219 0.990106,-0.4213219 0.568785,0 0.969041,0.4213219 0.421322,0.4002559 0.421322,0.9690406 0,0.5687847 -0.421322,0.9901067 -0.400256,0.4002559 -0.969041,0.4002559 z"
       style="fill:#ffffff"
       id="path11241" />
    <path
       d="m 64.857652,8.2930049 q 1.453561,0 2.612196,0.631983 1.158635,0.6319829 1.811685,1.8538171 0.653049,1.200767 0.653049,2.907121 v 5.182261 q 0,0.463454 -0.315992,0.779445 -0.294925,0.294926 -0.758379,0.294926 -0.463455,0 -0.779446,-0.294926 -0.294926,-0.315991 -0.294926,-0.779445 v -5.182261 q 0,-1.706354 -0.926908,-2.570064 -0.905842,-0.884776 -2.422601,-0.884776 -0.884776,0 -1.62209,0.358124 -0.716247,0.358123 -1.137569,0.96904 -0.400256,0.610917 -0.400256,1.369297 v 5.94064 q 0,0.463454 -0.294926,0.779445 -0.294925,0.294926 -0.779445,0.294926 -0.463454,0 -0.779446,-0.294926 -0.294925,-0.315991 -0.294925,-0.779445 V 9.4727064 q 0,-0.4845202 0.294925,-0.7794456 0.315992,-0.2949254 0.779446,-0.2949254 0.48452,0 0.779445,0.2949254 0.294926,0.2949254 0.294926,0.7794456 V 9.7044335 Q 61.95053,9.0303184 62.877438,8.6721947 63.804347,8.2930049 64.857652,8.2930049 Z"
       style="fill:#ffffff"
       id="path11243" />
    <path
       d="m 82.995545,8.3772693 q 0.48452,0 0.779446,0.2949254 0.294925,0.2949254 0.294925,0.7794456 v 9.3954807 q 0,0.463454 -0.294925,0.779445 -0.294926,0.294926 -0.779446,0.294926 -0.463454,0 -0.779446,-0.294926 -0.294925,-0.315991 -0.294925,-0.779445 v -0.231728 q -0.674115,0.674116 -1.601024,1.053305 -0.926908,0.358124 -1.980213,0.358124 -1.453561,0 -2.612196,-0.631983 -1.158636,-0.631983 -1.811685,-1.83275 -0.653049,-1.221834 -0.653049,-2.928188 V 9.4516403 q 0,-0.4634541 0.294926,-0.7583795 0.315991,-0.3159915 0.779445,-0.3159915 0.463454,0 0.75838,0.3159915 0.315991,0.2949254 0.315991,0.7583795 v 5.1822607 q 0,1.706354 0.905843,2.59113 0.926908,0.86371 2.443667,0.86371 0.884776,0 1.601024,-0.358124 0.737313,-0.358123 1.137569,-0.96904 0.421322,-0.610917 0.421322,-1.369297 V 9.4516403 q 0,-0.4845202 0.294925,-0.7794456 0.315992,-0.2949254 0.779446,-0.2949254 z"
       style="fill:#ffffff"
       id="path11245" />
    <path
       d="m 95.972231,18.299402 q 0.294925,0.315991 0.294925,0.737313 0,0.37919 -0.273859,0.631983 -0.252793,0.252794 -0.674115,0.252794 -0.505587,0 -0.75838,-0.337058 l -3.349509,-4.002559 -3.180981,4.002559 q -0.315992,0.337058 -0.75838,0.337058 -0.421322,0 -0.674115,-0.252794 -0.231727,-0.252793 -0.231727,-0.631983 0,-0.421322 0.294925,-0.779445 l 3.265245,-4.086823 -3.475906,-4.10789 q -0.315991,-0.3791896 -0.315991,-0.8005116 0,-0.3581236 0.231727,-0.6109168 0.252793,-0.2527932 0.695181,-0.2527932 0.505586,0 0.800512,0.3581237 l 3.45484,4.1289559 3.096717,-4.1289559 q 0.273859,-0.3581237 0.779445,-0.3581237 0.421322,0 0.653049,0.2738593 0.252794,0.2527932 0.252794,0.6319829 0,0.4634542 -0.294926,0.8426444 l -3.180981,4.150021 z"
       style="fill:#ffffff"
       id="path11247" />
    <path
       d="m 114.55252,3.4688682 q 0.46345,0 0.77944,0.3159915 0.31599,0.3159914 0.31599,0.7794456 V 18.826054 q 0,0.463455 -0.33705,0.779446 -0.316,0.315992 -0.75838,0.315992 -0.46346,0 -0.77945,-0.315992 -0.31599,-0.315991 -0.31599,-0.779446 V 8.3562032 l -5.098,10.3855868 q -0.35812,0.547719 -0.94797,0.547719 -0.69518,0 -1.01117,-0.653049 L 101.36514,8.5457981 V 18.826054 q 0,0.463455 -0.31599,0.779446 -0.316,0.315992 -0.77945,0.315992 -0.463453,0 -0.779445,-0.315992 -0.315991,-0.315991 -0.315991,-0.779446 V 4.5643053 q 0,-0.4634542 0.315991,-0.7794456 0.315992,-0.3159915 0.779445,-0.3159915 0.63198,0 0.96904,0.5898508 l 6.25663,12.534329 6.08811,-12.534329 q 0.33705,-0.5898508 0.96904,-0.5898508 z"
       style="font-weight:bold;font-family:Comfortaa;-inkscape-font-specification:'Comfortaa Bold';fill:#78c02f"
       id="path11249" />
    <path
       d="m 120.93551,19.921492 q -0.46346,0 -0.77945,-0.294926 -0.29492,-0.315991 -0.29492,-0.779445 V 9.4727064 q 0,-0.4845202 0.29492,-0.7794456 0.31599,-0.2949254 0.77945,-0.2949254 0.48452,0 0.77944,0.2949254 0.29493,0.2949254 0.29493,0.7794456 v 9.3744146 q 0,0.463454 -0.29493,0.779445 -0.29492,0.294926 -0.77944,0.294926 z m 0,-13.3980394 q -0.56879,0 -0.99011,-0.4002559 -0.40025,-0.421322 -0.40025,-0.9901067 0,-0.5687847 0.40025,-0.9690406 0.42132,-0.4213219 0.99011,-0.4213219 0.56878,0 0.96904,0.4213219 0.42132,0.4002559 0.42132,0.9690406 0,0.5687847 -0.42132,0.9901067 -0.40026,0.4002559 -0.96904,0.4002559 z"
       style="font-weight:bold;font-family:Comfortaa;-inkscape-font-specification:'Comfortaa Bold';fill:#78c02f"
       id="path11251" />
    <path
       d="m 131.74238,8.2930049 q 1.45356,0 2.6122,0.631983 1.15863,0.6319829 1.81168,1.8538171 0.65305,1.200767 0.65305,2.907121 v 5.182261 q 0,0.463454 -0.31599,0.779445 -0.29493,0.294926 -0.75838,0.294926 -0.46346,0 -0.77945,-0.294926 -0.29492,-0.315991 -0.29492,-0.779445 v -5.182261 q 0,-1.706354 -0.92691,-2.570064 -0.90584,-0.884776 -2.4226,-0.884776 -0.88478,0 -1.62209,0.358124 -0.71625,0.358123 -1.13757,0.96904 -0.40026,0.610917 -0.40026,1.369297 v 5.94064 q 0,0.463454 -0.29492,0.779445 -0.29493,0.294926 -0.77945,0.294926 -0.46345,0 -0.77944,-0.294926 -0.29493,-0.315991 -0.29493,-0.779445 V 9.4727064 q 0,-0.4845202 0.29493,-0.7794456 0.31599,-0.2949254 0.77944,-0.2949254 0.48452,0 0.77945,0.2949254 0.29492,0.2949254 0.29492,0.7794456 v 0.2317271 q 0.67412,-0.6741151 1.60103,-1.0322388 0.9269,-0.3791898 1.98021,-0.3791898 z"
       style="font-weight:bold;font-family:Comfortaa;-inkscape-font-specification:'Comfortaa Bold';fill:#78c02f"
       id="path11253" />
    <path
       d="m 145.28787,17.814882 q 0.37919,0 0.63198,0.294925 0.27386,0.294925 0.27386,0.75838 0,0.463454 -0.35812,0.758379 -0.33706,0.294926 -0.88478,0.294926 h -0.37919 q -1.03224,0 -1.89595,-0.526653 -0.84264,-0.547718 -1.32716,-1.474627 -0.48452,-0.926908 -0.48452,-2.085544 v -5.203326 h -0.96904 q -0.44239,0 -0.71625,-0.252793 -0.27386,-0.252793 -0.27386,-0.6319833 0,-0.421322 0.27386,-0.6741151 0.27386,-0.2527932 0.71625,-0.2527932 h 0.96904 V 5.7861391 q 0,-0.4634542 0.29492,-0.7583796 0.29493,-0.2949254 0.75838,-0.2949254 0.46346,0 0.75838,0.2949254 0.29493,0.2949254 0.29493,0.7583796 v 3.0335183 h 1.79061 q 0.44239,0 0.71625,0.2527932 0.27386,0.2527931 0.27386,0.6741151 0,0.3791903 -0.27386,0.6319833 -0.27386,0.252793 -0.71625,0.252793 h -1.79061 v 5.203326 q 0,0.842644 0.46345,1.411429 0.46345,0.568785 1.13757,0.568785 z"
       style="font-weight:bold;font-family:Comfortaa;-inkscape-font-specification:'Comfortaa Bold';fill:#78c02f"
       id="path11255" />
  </g>
  <path
     style="fill:#78c02f;fill-opacity:1;stroke-width:0.185924"
     d="M 0,63.957947 V 0.09296213 H 41.275187 82.550374 V 18.778351 37.463739 H 59.867613 37.184853 V 82.643336 127.82293 H 18.592427 0 Z"
     id="path35428"
     transform="matrix(0.26458878,0,0,0.26458878,0,-0.00194725)" />
  <path
     style="fill:#78c02f;fill-opacity:1;stroke-width:0.185924"
     d="M 45.365521,86.547745 V 45.272559 H 64.050909 82.736298 V 86.547745 127.82293 H 64.050909 45.365521 Z"
     id="path35504"
     transform="matrix(0.26458878,0,0,0.26458878,0,-0.00194725)" />
  <path
     style="fill:#78c02f;fill-opacity:1;stroke-width:0.185924"
     d="M 90.731041,63.957947 V 0.09296213 h 18.592429 18.59242 V 63.957947 127.82293 H 109.32347 90.731041 Z"
     id="path35543"
     transform="matrix(0.26458878,0,0,0.26458878,0,-0.00194725)" />
  <text
     xml:space="preserve"
     style="font-style:normal;font-weight:normal;font-size:10.5836px;line-height:1.25;font-family:sans-serif;fill:#78c02f;fill-opacity:1;stroke:none;stroke-width:0.264589"
     x="69.291794"
     y="25.39113"
     id="text46158"><tspan
       sodipodi:role="line"
       id="tspan46156"
       style="stroke-width:0.264589;fill:#78c02f;fill-opacity:1"
       x="69.291794"
       y="25.39113" /></text>
  <g
     aria-label="from freedom came elegance"
     id="text53936"
     style="font-size:7.08049px;line-height:1.25;font-family:Comfortaa;-inkscape-font-specification:Comfortaa;stroke-width:0.177012">
    <path
       d="m 41.764712,23.834319 q -0.467312,0 -0.708049,0.311542 -0.233656,0.311541 -0.233656,0.828417 v 0.162851 h 0.849659 q 0.113288,0 0.177012,0.07081 0.07081,0.06372 0.07081,0.169932 0,0.09913 -0.07081,0.169932 -0.06372,0.06372 -0.177012,0.06372 h -0.849659 v 2.980886 q 0,0.127449 -0.07788,0.205335 -0.07081,0.0708 -0.205334,0.0708 -0.113288,0 -0.191174,-0.0708 -0.07081,-0.07789 -0.07081,-0.205335 v -2.980886 h -0.453151 q -0.113288,0 -0.184093,-0.06372 -0.06372,-0.07081 -0.06372,-0.169932 0,-0.106208 0.06372,-0.169932 0.07081,-0.07081 0.184093,-0.07081 h 0.453151 V 25.0026 q 0,-0.757613 0.389427,-1.210764 0.389427,-0.453151 1.097476,-0.453151 0.120369,0 0.198254,0.07081 0.07789,0.0708 0.07789,0.177012 0,0.106207 -0.07789,0.177012 -0.07789,0.07081 -0.198254,0.07081 z"
       style="fill:#78c02f"
       id="path11276" />
    <path
       d="m 44.398649,24.953036 q 0.297381,0 0.467312,0.07789 0.177013,0.07788 0.177013,0.219495 0,0.04248 -0.0071,0.06372 -0.02832,0.09913 -0.09205,0.13453 -0.05664,0.0354 -0.162851,0.0354 -0.06373,0 -0.219496,-0.01416 -0.05664,-0.0071 -0.169931,-0.0071 -0.531037,0 -0.870901,0.283219 -0.332783,0.28322 -0.332783,0.736371 v 2.117067 q 0,0.127449 -0.07081,0.198254 -0.07081,0.0708 -0.198253,0.0708 -0.127449,0 -0.198254,-0.0708 -0.07081,-0.07081 -0.07081,-0.198254 v -3.334911 q 0,-0.127449 0.07081,-0.198254 0.07081,-0.07081 0.198254,-0.07081 0.127448,0 0.198253,0.07081 0.07081,0.07081 0.07081,0.198254 v 0.311542 q 0.205334,-0.297381 0.523957,-0.460232 0.318622,-0.162852 0.686807,-0.162852 z"
       style="fill:#78c02f"
       id="path11278" />
    <path
       d="m 47.287476,28.90395 q -0.559358,0 -1.01251,-0.254898 -0.44607,-0.254897 -0.700968,-0.700968 -0.254898,-0.453152 -0.254898,-1.01251 0,-0.559359 0.254898,-1.01251 0.254898,-0.453152 0.700968,-0.708049 0.453152,-0.254898 1.01251,-0.254898 0.559359,0 1.00543,0.254898 0.446071,0.254897 0.700969,0.708049 0.261978,0.453151 0.261978,1.01251 0,0.559358 -0.254898,1.01251 -0.254898,0.446071 -0.708049,0.700968 -0.446071,0.254898 -1.00543,0.254898 z m 0,-0.495634 q 0.410669,0 0.736371,-0.191174 0.325703,-0.191173 0.509796,-0.523956 0.184092,-0.339863 0.184092,-0.757612 0,-0.42483 -0.184092,-0.757613 -0.184093,-0.339863 -0.509796,-0.531037 -0.325702,-0.191173 -0.736371,-0.191173 -0.403587,0 -0.73637,0.191173 -0.325703,0.191174 -0.516876,0.531037 -0.184093,0.332783 -0.184093,0.757613 0,0.417749 0.184093,0.757612 0.191173,0.332783 0.516876,0.523956 0.332783,0.191174 0.73637,0.191174 z"
       style="fill:#78c02f"
       id="path11280" />
    <path
       d="m 54.396275,24.953036 q 0.417749,0 0.736371,0.198254 0.325703,0.198254 0.502715,0.566439 0.184093,0.361105 0.184093,0.842579 v 2.039181 q 0,0.120368 -0.07789,0.198254 -0.07081,0.0708 -0.191173,0.0708 -0.120368,0 -0.198254,-0.0708 -0.07789,-0.07789 -0.07789,-0.198254 v -2.039181 q 0,-0.502715 -0.261978,-0.793015 -0.254898,-0.297381 -0.672647,-0.297381 -0.446071,0 -0.72221,0.297381 -0.276139,0.29738 -0.269058,0.778854 v 0.01416 2.039181 q 0,0.120368 -0.07789,0.198254 -0.07081,0.0708 -0.191173,0.0708 -0.120368,0 -0.198254,-0.0708 -0.07789,-0.07789 -0.07789,-0.198254 v -2.039181 q 0,-0.502715 -0.261978,-0.793015 -0.254898,-0.297381 -0.672647,-0.297381 -0.43899,0 -0.72221,0.2903 -0.283219,0.2903 -0.283219,0.743452 v 2.095825 q 0,0.120368 -0.07789,0.198254 -0.07081,0.0708 -0.191173,0.0708 -0.120368,0 -0.198254,-0.0708 -0.07789,-0.07789 -0.07789,-0.198254 v -3.327831 q 0,-0.120368 0.07789,-0.198253 0.07789,-0.07789 0.198254,-0.07789 0.120368,0 0.191173,0.07789 0.07789,0.07788 0.07789,0.198253 v 0.155771 q 0.198253,-0.226575 0.467312,-0.346944 0.276139,-0.127449 0.594761,-0.127449 0.389427,0 0.700969,0.177013 0.311541,0.177012 0.495634,0.495634 0.205334,-0.318622 0.531037,-0.495634 0.332783,-0.177013 0.743451,-0.177013 z"
       style="fill:#78c02f"
       id="path11282" />
    <path
       d="m 60.804103,23.834319 q -0.467312,0 -0.708049,0.311542 -0.233656,0.311541 -0.233656,0.828417 v 0.162851 h 0.849659 q 0.113287,0 0.177012,0.07081 0.07081,0.06372 0.07081,0.169932 0,0.09913 -0.07081,0.169932 -0.06372,0.06372 -0.177012,0.06372 h -0.849659 v 2.980886 q 0,0.127449 -0.07789,0.205335 -0.07081,0.0708 -0.205334,0.0708 -0.113288,0 -0.191173,-0.0708 -0.07081,-0.07789 -0.07081,-0.205335 v -2.980886 h -0.453151 q -0.113288,0 -0.184093,-0.06372 -0.06372,-0.07081 -0.06372,-0.169932 0,-0.106208 0.06372,-0.169932 0.07081,-0.07081 0.184093,-0.07081 H 59.3172 V 25.0026 q 0,-0.757613 0.389427,-1.210764 0.389427,-0.453151 1.097476,-0.453151 0.120368,0 0.198254,0.07081 0.07788,0.0708 0.07788,0.177012 0,0.106207 -0.07788,0.177012 -0.07789,0.07081 -0.198254,0.07081 z"
       style="fill:#78c02f"
       id="path11284" />
    <path
       d="m 63.438039,24.953036 q 0.297381,0 0.467313,0.07789 0.177012,0.07788 0.177012,0.219495 0,0.04248 -0.0071,0.06372 -0.02832,0.09913 -0.09205,0.13453 -0.05664,0.0354 -0.162851,0.0354 -0.06372,0 -0.219495,-0.01416 -0.05664,-0.0071 -0.169932,-0.0071 -0.531037,0 -0.8709,0.283219 -0.332783,0.28322 -0.332783,0.736371 v 2.117067 q 0,0.127449 -0.07081,0.198254 -0.07081,0.0708 -0.198254,0.0708 -0.127449,0 -0.198254,-0.0708 -0.07081,-0.07081 -0.07081,-0.198254 v -3.334911 q 0,-0.127449 0.07081,-0.198254 0.07081,-0.07081 0.198254,-0.07081 0.127449,0 0.198254,0.07081 0.07081,0.07081 0.07081,0.198254 v 0.311542 q 0.205334,-0.297381 0.523956,-0.460232 0.318622,-0.162852 0.686807,-0.162852 z"
       style="fill:#78c02f"
       id="path11286" />
    <path
       d="m 66.213581,24.960117 q 0.523956,0 0.927544,0.247817 0.403588,0.240737 0.623083,0.672647 0.226576,0.43191 0.226576,0.984188 0,0.113288 -0.07081,0.184092 -0.0708,0.06373 -0.184093,0.06373 h -2.860518 q 0.05664,0.5806 0.453151,0.941705 0.396508,0.361105 0.991269,0.361105 0.254898,0 0.509795,-0.08497 0.261978,-0.09205 0.417749,-0.226575 0.09205,-0.07081 0.191173,-0.07081 0.07789,0 0.155771,0.05664 0.09205,0.08496 0.09205,0.191173 0,0.09205 -0.07789,0.162851 -0.233656,0.198254 -0.594761,0.332783 -0.361105,0.127449 -0.693888,0.127449 -0.566439,0 -1.01251,-0.247817 -0.446071,-0.254898 -0.700969,-0.700969 -0.247817,-0.453151 -0.247817,-1.01959 0,-0.57352 0.233656,-1.019591 0.240737,-0.453151 0.658486,-0.700968 0.424829,-0.254898 0.962947,-0.254898 z m 0,0.488554 q -0.538118,0 -0.892142,0.332783 -0.354025,0.332783 -0.43191,0.877981 h 2.591459 q -0.05664,-0.545198 -0.396507,-0.877981 -0.339864,-0.332783 -0.8709,-0.332783 z"
       style="fill:#78c02f"
       id="path11288" />
    <path
       d="m 70.419376,24.960117 q 0.523956,0 0.927544,0.247817 0.403588,0.240737 0.623083,0.672647 0.226576,0.43191 0.226576,0.984188 0,0.113288 -0.0708,0.184092 -0.07081,0.06373 -0.184093,0.06373 h -2.860518 q 0.05664,0.5806 0.453152,0.941705 0.396507,0.361105 0.991268,0.361105 0.254898,0 0.509796,-0.08497 0.261978,-0.09205 0.417748,-0.226575 0.09205,-0.07081 0.191174,-0.07081 0.07788,0 0.155771,0.05664 0.09205,0.08496 0.09205,0.191173 0,0.09205 -0.07789,0.162851 -0.233656,0.198254 -0.594761,0.332783 -0.361105,0.127449 -0.693888,0.127449 -0.566439,0 -1.01251,-0.247817 -0.446071,-0.254898 -0.700968,-0.700969 -0.247817,-0.453151 -0.247817,-1.01959 0,-0.57352 0.233656,-1.019591 0.240736,-0.453151 0.658485,-0.700968 0.42483,-0.254898 0.962947,-0.254898 z m 0,0.488554 q -0.538117,0 -0.892142,0.332783 -0.354024,0.332783 -0.43191,0.877981 h 2.59146 q -0.05664,-0.545198 -0.396508,-0.877981 -0.339863,-0.332783 -0.8709,-0.332783 z"
       style="fill:#78c02f"
       id="path11290" />
    <path
       d="m 76.699759,25.200854 q 0.0071,0.02124 0.0071,0.06372 v 1.663915 q 0,0.552278 -0.261978,1.00543 -0.254898,0.453151 -0.708049,0.715129 -0.446071,0.254898 -0.998349,0.254898 -0.552278,0 -1.00543,-0.254898 -0.446071,-0.261978 -0.708049,-0.715129 -0.254897,-0.453152 -0.254897,-1.00543 0,-0.552278 0.247817,-0.998349 0.254897,-0.453151 0.686807,-0.708049 0.438991,-0.261978 0.977108,-0.261978 0.460232,0 0.842578,0.198254 0.382347,0.191173 0.630164,0.531036 v -2.074583 q 0,-0.120369 0.07788,-0.198254 0.07789,-0.07788 0.198254,-0.07788 0.120368,0 0.191173,0.07788 0.07789,0.07788 0.07789,0.198254 z m -1.961296,3.207462 q 0.403588,0 0.72929,-0.191174 0.325703,-0.198253 0.509796,-0.531036 0.191173,-0.339864 0.191173,-0.757613 0,-0.120368 -0.0071,-0.177012 -0.0071,-0.01416 -0.0071,-0.0354 -0.07081,-0.552278 -0.467312,-0.906302 -0.389427,-0.354025 -0.948786,-0.354025 -0.403588,0 -0.736371,0.191173 -0.325703,0.191174 -0.516876,0.531037 -0.184093,0.332783 -0.184093,0.750532 0,0.417749 0.184093,0.757613 0.191173,0.332783 0.516876,0.531036 0.332783,0.191174 0.736371,0.191174 z"
       style="fill:#78c02f"
       id="path11292" />
    <path
       d="m 79.74436,28.90395 q -0.559358,0 -1.01251,-0.254898 -0.446071,-0.254897 -0.700968,-0.700968 -0.254898,-0.453152 -0.254898,-1.01251 0,-0.559359 0.254898,-1.01251 0.254897,-0.453152 0.700968,-0.708049 0.453152,-0.254898 1.01251,-0.254898 0.559359,0 1.00543,0.254898 0.446071,0.254897 0.700969,0.708049 0.261978,0.453151 0.261978,1.01251 0,0.559358 -0.254898,1.01251 -0.254898,0.446071 -0.708049,0.700968 -0.446071,0.254898 -1.00543,0.254898 z m 0,-0.495634 q 0.410669,0 0.736371,-0.191174 0.325703,-0.191173 0.509796,-0.523956 0.184092,-0.339863 0.184092,-0.757612 0,-0.42483 -0.184092,-0.757613 -0.184093,-0.339863 -0.509796,-0.531037 -0.325702,-0.191173 -0.736371,-0.191173 -0.403588,0 -0.736371,0.191173 -0.325702,0.191174 -0.516875,0.531037 -0.184093,0.332783 -0.184093,0.757613 0,0.417749 0.184093,0.757612 0.191173,0.332783 0.516875,0.523956 0.332783,0.191174 0.736371,0.191174 z"
       style="fill:#78c02f"
       id="path11294" />
    <path
       d="m 86.853157,24.953036 q 0.417749,0 0.736371,0.198254 0.325702,0.198254 0.502715,0.566439 0.184092,0.361105 0.184092,0.842579 v 2.039181 q 0,0.120368 -0.07789,0.198254 -0.0708,0.0708 -0.191173,0.0708 -0.120369,0 -0.198254,-0.0708 -0.07788,-0.07789 -0.07788,-0.198254 v -2.039181 q 0,-0.502715 -0.261979,-0.793015 -0.254897,-0.297381 -0.672646,-0.297381 -0.446071,0 -0.72221,0.297381 -0.276139,0.29738 -0.269059,0.778854 v 0.01416 2.039181 q 0,0.120368 -0.07788,0.198254 -0.07081,0.0708 -0.191173,0.0708 -0.120369,0 -0.198254,-0.0708 -0.07789,-0.07789 -0.07789,-0.198254 v -2.039181 q 0,-0.502715 -0.261978,-0.793015 -0.254897,-0.297381 -0.672646,-0.297381 -0.438991,0 -0.72221,0.2903 -0.28322,0.2903 -0.28322,0.743452 v 2.095825 q 0,0.120368 -0.07788,0.198254 -0.07081,0.0708 -0.191173,0.0708 -0.120369,0 -0.198254,-0.0708 -0.07789,-0.07789 -0.07789,-0.198254 v -3.327831 q 0,-0.120368 0.07789,-0.198253 0.07788,-0.07789 0.198254,-0.07789 0.120368,0 0.191173,0.07789 0.07788,0.07788 0.07788,0.198253 v 0.155771 q 0.198254,-0.226575 0.467313,-0.346944 0.276139,-0.127449 0.594761,-0.127449 0.389427,0 0.700968,0.177013 0.311542,0.177012 0.495635,0.495634 0.205334,-0.318622 0.531036,-0.495634 0.332783,-0.177013 0.743452,-0.177013 z"
       style="fill:#78c02f"
       id="path11296" />
    <path
       d="m 93.282227,28.90395 q -0.552278,0 -0.991269,-0.254898 -0.43899,-0.261978 -0.693888,-0.708049 -0.247817,-0.453151 -0.247817,-1.005429 0,-0.56644 0.240737,-1.01251 0.240736,-0.453152 0.665566,-0.708049 0.424829,-0.254898 0.955866,-0.254898 0.885061,0 1.437339,0.679727 0.05664,0.06372 0.05664,0.14869 0,0.113288 -0.120368,0.198254 -0.06372,0.04248 -0.134529,0.04248 -0.106208,0 -0.205335,-0.106207 -0.212414,-0.233657 -0.467312,-0.346944 -0.254897,-0.120369 -0.566439,-0.120369 -0.389427,0 -0.693888,0.191173 -0.304461,0.184093 -0.474393,0.523957 -0.162851,0.339863 -0.162851,0.764693 0,0.417749 0.177012,0.757612 0.177012,0.332783 0.495634,0.523956 0.318622,0.191174 0.729291,0.191174 0.566439,0 0.913383,-0.304461 0.09205,-0.07789 0.191173,-0.07789 0.08497,0 0.155771,0.05664 0.09913,0.08497 0.09913,0.191173 0,0.09205 -0.07081,0.155771 -0.509795,0.474393 -1.288649,0.474393 z"
       style="fill:#78c02f"
       id="path11298" />
    <path
       d="m 97.537592,24.960117 q 0.552279,0 0.998349,0.261978 0.453152,0.254898 0.708049,0.708049 0.261979,0.453151 0.261979,1.00543 v 1.663915 q 0,0.113288 -0.07789,0.191173 -0.07788,0.07788 -0.198254,0.07788 -0.120368,0 -0.198253,-0.0708 -0.07789,-0.07789 -0.07789,-0.198254 v -0.42483 q -0.247817,0.339864 -0.630163,0.538118 -0.382347,0.191173 -0.842579,0.191173 -0.538117,0 -0.977107,-0.254898 -0.43191,-0.261978 -0.686808,-0.708049 -0.247817,-0.453151 -0.247817,-1.005429 0,-0.552279 0.254898,-1.00543 0.261978,-0.453151 0.708049,-0.708049 0.453151,-0.261978 1.005429,-0.261978 z m 0,3.448199 q 0.403588,0 0.729291,-0.191174 0.325702,-0.191173 0.509795,-0.523956 0.191173,-0.339863 0.191173,-0.757612 0,-0.417749 -0.191173,-0.750532 -0.184093,-0.339864 -0.509795,-0.531037 -0.325703,-0.198254 -0.729291,-0.198254 -0.403588,0 -0.736371,0.198254 -0.325702,0.191173 -0.516875,0.531037 -0.184093,0.332783 -0.184093,0.750532 0,0.417749 0.184093,0.757612 0.191173,0.332783 0.516875,0.523956 0.332783,0.191174 0.736371,0.191174 z"
       style="fill:#78c02f"
       id="path11300" />
    <path
       d="m 104.64639,24.953036 q 0.41775,0 0.73637,0.198254 0.32571,0.198254 0.50272,0.566439 0.18409,0.361105 0.18409,0.842579 v 2.039181 q 0,0.120368 -0.0779,0.198254 -0.0708,0.0708 -0.19118,0.0708 -0.12037,0 -0.19825,-0.0708 -0.0779,-0.07789 -0.0779,-0.198254 v -2.039181 q 0,-0.502715 -0.26197,-0.793015 -0.2549,-0.297381 -0.67265,-0.297381 -0.44607,0 -0.72221,0.297381 -0.27614,0.29738 -0.26906,0.778854 v 0.01416 2.039181 q 0,0.120368 -0.0779,0.198254 -0.0708,0.0708 -0.19117,0.0708 -0.12037,0 -0.19825,-0.0708 -0.0779,-0.07789 -0.0779,-0.198254 v -2.039181 q 0,-0.502715 -0.26198,-0.793015 -0.25489,-0.297381 -0.67264,-0.297381 -0.43899,0 -0.72221,0.2903 -0.28322,0.2903 -0.28322,0.743452 v 2.095825 q 0,0.120368 -0.0779,0.198254 -0.0708,0.0708 -0.19117,0.0708 -0.12037,0 -0.19825,-0.0708 -0.0779,-0.07789 -0.0779,-0.198254 v -3.327831 q 0,-0.120368 0.0779,-0.198253 0.0779,-0.07789 0.19825,-0.07789 0.12037,0 0.19117,0.07789 0.0779,0.07788 0.0779,0.198253 v 0.155771 q 0.19825,-0.226575 0.46731,-0.346944 0.27614,-0.127449 0.59476,-0.127449 0.38943,0 0.70097,0.177013 0.31154,0.177012 0.49563,0.495634 0.20534,-0.318622 0.53104,-0.495634 0.33278,-0.177013 0.74345,-0.177013 z"
       style="fill:#78c02f"
       id="path11302" />
    <path
       d="m 108.923,24.960117 q 0.52395,0 0.92754,0.247817 0.40359,0.240737 0.62308,0.672647 0.22658,0.43191 0.22658,0.984188 0,0.113288 -0.0708,0.184092 -0.0708,0.06373 -0.18409,0.06373 h -2.86052 q 0.0567,0.5806 0.45315,0.941705 0.39651,0.361105 0.99127,0.361105 0.2549,0 0.5098,-0.08497 0.26198,-0.09205 0.41775,-0.226575 0.092,-0.07081 0.19117,-0.07081 0.0779,0 0.15577,0.05664 0.0921,0.08496 0.0921,0.191173 0,0.09205 -0.0779,0.162851 -0.23365,0.198254 -0.59476,0.332783 -0.3611,0.127449 -0.69389,0.127449 -0.56644,0 -1.01251,-0.247817 -0.44607,-0.254898 -0.70097,-0.700969 -0.24781,-0.453151 -0.24781,-1.01959 0,-0.57352 0.23365,-1.019591 0.24074,-0.453151 0.65849,-0.700968 0.42483,-0.254898 0.96295,-0.254898 z m 0,0.488554 q -0.53812,0 -0.89215,0.332783 -0.35402,0.332783 -0.43191,0.877981 h 2.59146 q -0.0566,-0.545198 -0.3965,-0.877981 -0.33987,-0.332783 -0.8709,-0.332783 z"
       style="fill:#78c02f"
       id="path11304" />
    <path
       d="m 115.34499,24.960117 q 0.52395,0 0.92754,0.247817 0.40359,0.240737 0.62308,0.672647 0.22658,0.43191 0.22658,0.984188 0,0.113288 -0.0708,0.184092 -0.0708,0.06373 -0.18409,0.06373 h -2.86052 q 0.0566,0.5806 0.45315,0.941705 0.39651,0.361105 0.99127,0.361105 0.2549,0 0.5098,-0.08497 0.26198,-0.09205 0.41775,-0.226575 0.092,-0.07081 0.19117,-0.07081 0.0779,0 0.15577,0.05664 0.0921,0.08496 0.0921,0.191173 0,0.09205 -0.0779,0.162851 -0.23365,0.198254 -0.59476,0.332783 -0.3611,0.127449 -0.69389,0.127449 -0.56644,0 -1.01251,-0.247817 -0.44607,-0.254898 -0.70097,-0.700969 -0.24781,-0.453151 -0.24781,-1.01959 0,-0.57352 0.23365,-1.019591 0.24074,-0.453151 0.65849,-0.700968 0.42483,-0.254898 0.96295,-0.254898 z m 0,0.488554 q -0.53812,0 -0.89215,0.332783 -0.35402,0.332783 -0.43191,0.877981 h 2.59146 q -0.0566,-0.545198 -0.3965,-0.877981 -0.33987,-0.332783 -0.8709,-0.332783 z"
       style="fill:#78c02f"
       id="path11306" />
    <path
       d="m 118.87814,28.868547 q -0.43191,0 -0.70805,-0.339863 -0.26906,-0.346944 -0.26906,-0.885061 v -4.03588 q 0,-0.120368 0.0779,-0.191173 0.0779,-0.07788 0.19117,-0.07788 0.12037,0 0.19118,0.07788 0.0779,0.07081 0.0779,0.191173 v 4.03588 q 0,0.304461 0.12037,0.495634 0.12745,0.191173 0.31862,0.191173 h 0.17701 q 0.10621,0 0.16994,0.07789 0.0637,0.0708 0.0637,0.191173 0,0.120368 -0.0921,0.198254 -0.085,0.0708 -0.22657,0.0708 z"
       style="fill:#78c02f"
       id="path11308" />
    <path
       d="m 121.56163,24.960117 q 0.52396,0 0.92754,0.247817 0.40359,0.240737 0.62309,0.672647 0.22657,0.43191 0.22657,0.984188 0,0.113288 -0.0708,0.184092 -0.0708,0.06373 -0.18409,0.06373 h -2.86052 q 0.0566,0.5806 0.45315,0.941705 0.39651,0.361105 0.99127,0.361105 0.25489,0 0.50979,-0.08497 0.26198,-0.09205 0.41775,-0.226575 0.0921,-0.07081 0.19117,-0.07081 0.0779,0 0.15578,0.05664 0.092,0.08496 0.092,0.191173 0,0.09205 -0.0779,0.162851 -0.23366,0.198254 -0.59476,0.332783 -0.36111,0.127449 -0.69389,0.127449 -0.56644,0 -1.01251,-0.247817 -0.44607,-0.254898 -0.70097,-0.700969 -0.24782,-0.453151 -0.24782,-1.01959 0,-0.57352 0.23366,-1.019591 0.24073,-0.453151 0.65848,-0.700968 0.42483,-0.254898 0.96295,-0.254898 z m 0,0.488554 q -0.53812,0 -0.89214,0.332783 -0.35403,0.332783 -0.43191,0.877981 h 2.59146 q -0.0567,-0.545198 -0.39651,-0.877981 -0.33986,-0.332783 -0.8709,-0.332783 z"
       style="fill:#78c02f"
       id="path11310" />
    <path
       d="m 125.88071,24.960117 q 0.56644,0 1.01251,0.254898 0.44607,0.247817 0.70097,0.700968 0.2549,0.446071 0.2549,1.019591 v 1.44442 q 0,0.566439 -0.2549,1.026671 -0.24782,0.460232 -0.69389,0.72221 -0.44607,0.269058 -1.00543,0.269058 -0.54519,0 -0.97002,-0.205334 -0.42483,-0.205334 -0.71513,-0.57352 -0.0637,-0.07081 -0.0637,-0.162851 0,-0.106207 0.0991,-0.184093 0.0708,-0.04956 0.15577,-0.04956 0.0637,0 0.12745,0.02832 0.0637,0.0354 0.0991,0.08497 0.21241,0.269058 0.53811,0.417749 0.32571,0.14869 0.73637,0.14869 0.39651,0 0.71513,-0.198254 0.32571,-0.191173 0.5098,-0.545197 0.18409,-0.346944 0.18409,-0.800096 V 28.04013 q -0.21241,0.403588 -0.60184,0.637244 -0.38943,0.226576 -0.88506,0.226576 -0.55228,0 -0.99127,-0.247817 -0.43191,-0.254898 -0.67973,-0.700969 -0.24073,-0.453151 -0.24073,-1.01959 0,-0.57352 0.25489,-1.019591 0.2549,-0.453151 0.70097,-0.700968 0.45315,-0.254898 1.01251,-0.254898 z m 0,3.448199 q 0.41067,0 0.73637,-0.184093 0.32571,-0.191173 0.5098,-0.523956 0.18409,-0.339864 0.18409,-0.764693 0,-0.42483 -0.18409,-0.757613 -0.18409,-0.339863 -0.5098,-0.531037 -0.3257,-0.191173 -0.73637,-0.191173 -0.41775,0 -0.74345,0.191173 -0.3257,0.191174 -0.50979,0.531037 -0.1841,0.332783 -0.1841,0.757613 0,0.424829 0.1841,0.764693 0.18409,0.332783 0.50979,0.523956 0.3257,0.184093 0.74345,0.184093 z"
       style="fill:#78c02f"
       id="path11312" />
    <path
       d="m 130.67419,24.960117 q 0.55228,0 0.99835,0.261978 0.45315,0.254898 0.70805,0.708049 0.26198,0.453151 0.26198,1.00543 v 1.663915 q 0,0.113288 -0.0779,0.191173 -0.0779,0.07788 -0.19825,0.07788 -0.12037,0 -0.19825,-0.0708 -0.0779,-0.07789 -0.0779,-0.198254 v -0.42483 q -0.24782,0.339864 -0.63016,0.538118 -0.38235,0.191173 -0.84258,0.191173 -0.53812,0 -0.97711,-0.254898 -0.43191,-0.261978 -0.68681,-0.708049 -0.24781,-0.453151 -0.24781,-1.005429 0,-0.552279 0.25489,-1.00543 0.26198,-0.453151 0.70805,-0.708049 0.45315,-0.261978 1.00543,-0.261978 z m 0,3.448199 q 0.40359,0 0.72929,-0.191174 0.32571,-0.191173 0.5098,-0.523956 0.19117,-0.339863 0.19117,-0.757612 0,-0.417749 -0.19117,-0.750532 -0.18409,-0.339864 -0.5098,-0.531037 -0.3257,-0.198254 -0.72929,-0.198254 -0.40359,0 -0.73637,0.198254 -0.3257,0.191173 -0.51687,0.531037 -0.1841,0.332783 -0.1841,0.750532 0,0.417749 0.1841,0.757612 0.19117,0.332783 0.51687,0.523956 0.33278,0.191174 0.73637,0.191174 z"
       style="fill:#78c02f"
       id="path11314" />
    <path
       d="m 135.53848,24.953036 q 0.50271,0 0.89922,0.212415 0.40359,0.212415 0.63016,0.623083 0.22658,0.403588 0.22658,0.970027 v 1.840928 q 0,0.113288 -0.0779,0.191173 -0.0779,0.07788 -0.19117,0.07788 -0.12037,0 -0.19825,-0.07788 -0.0779,-0.07789 -0.0779,-0.191173 v -1.840928 q 0,-0.630163 -0.35402,-0.955866 -0.34695,-0.332783 -0.91339,-0.332783 -0.34694,0 -0.63016,0.134529 -0.27614,0.13453 -0.43899,0.375266 -0.16285,0.233657 -0.16285,0.523957 v 2.095825 q 0,0.120368 -0.0779,0.198254 -0.0708,0.0708 -0.19117,0.0708 -0.12037,0 -0.19825,-0.0708 -0.0779,-0.07789 -0.0779,-0.198254 v -3.327831 q 0,-0.120368 0.0779,-0.198253 0.0779,-0.07789 0.19825,-0.07789 0.12037,0 0.19117,0.07789 0.0779,0.07788 0.0779,0.198253 v 0.240737 q 0.23365,-0.261978 0.56644,-0.410668 0.33278,-0.148691 0.72221,-0.148691 z"
       style="fill:#78c02f"
       id="path11316" />
    <path
       d="m 140.22575,28.90395 q -0.55228,0 -0.99127,-0.254898 -0.43899,-0.261978 -0.69389,-0.708049 -0.24781,-0.453151 -0.24781,-1.005429 0,-0.56644 0.24073,-1.01251 0.24074,-0.453152 0.66557,-0.708049 0.42483,-0.254898 0.95587,-0.254898 0.88506,0 1.43733,0.679727 0.0567,0.06372 0.0567,0.14869 0,0.113288 -0.12037,0.198254 -0.0637,0.04248 -0.13453,0.04248 -0.10621,0 -0.20533,-0.106207 -0.21242,-0.233657 -0.46732,-0.346944 -0.25489,-0.120369 -0.56643,-0.120369 -0.38943,0 -0.69389,0.191173 -0.30446,0.184093 -0.4744,0.523957 -0.16285,0.339863 -0.16285,0.764693 0,0.417749 0.17702,0.757612 0.17701,0.332783 0.49563,0.523956 0.31862,0.191174 0.72929,0.191174 0.56644,0 0.91338,-0.304461 0.0921,-0.07789 0.19118,-0.07789 0.085,0 0.15577,0.05664 0.0991,0.08497 0.0991,0.191173 0,0.09205 -0.0708,0.155771 -0.5098,0.474393 -1.28865,0.474393 z"
       style="fill:#78c02f"
       id="path11318" />
    <path
       d="m 144.36783,24.960117 q 0.52395,0 0.92754,0.247817 0.40359,0.240737 0.62309,0.672647 0.22657,0.43191 0.22657,0.984188 0,0.113288 -0.0708,0.184092 -0.0708,0.06373 -0.1841,0.06373 h -2.86051 q 0.0566,0.5806 0.45315,0.941705 0.3965,0.361105 0.99127,0.361105 0.25489,0 0.50979,-0.08497 0.26198,-0.09205 0.41775,-0.226575 0.0921,-0.07081 0.19117,-0.07081 0.0779,0 0.15577,0.05664 0.0921,0.08496 0.0921,0.191173 0,0.09205 -0.0779,0.162851 -0.23365,0.198254 -0.59476,0.332783 -0.3611,0.127449 -0.69388,0.127449 -0.56644,0 -1.01251,-0.247817 -0.44608,-0.254898 -0.70097,-0.700969 -0.24782,-0.453151 -0.24782,-1.01959 0,-0.57352 0.23366,-1.019591 0.24073,-0.453151 0.65848,-0.700968 0.42483,-0.254898 0.96295,-0.254898 z m 0,0.488554 q -0.53812,0 -0.89214,0.332783 -0.35403,0.332783 -0.43191,0.877981 h 2.59146 q -0.0567,-0.545198 -0.39651,-0.877981 -0.33987,-0.332783 -0.8709,-0.332783 z"
       style="fill:#78c02f"
       id="path11320" />
  </g>
</svg>
